<?xml version="1.0" encoding="UTF-8" standalone="no"?>
<!-- Created with Inkscape (http://www.inkscape.org/) -->

<svg
   width="140mm"
   height="140mm"
   viewBox="0 0 140 140"
   version="1.1"
   id="svg1"
   xml:space="preserve"
   inkscape:version="1.4.3 (0d15f75, 2025-12-25)"
   sodipodi:docname="logo.svg"
   xmlns:inkscape="http://www.inkscape.org/namespaces/inkscape"
   xmlns:sodipodi="http://sodipodi.sourceforge.net/DTD/sodipodi-0.dtd"
   xmlns="http://www.w3.org/2000/svg"
   xmlns:svg="http://www.w3.org/2000/svg"><sodipodi:namedview
     id="namedview1"
     pagecolor="#ffffff"
     bordercolor="#666666"
     borderopacity="1.0"
     inkscape:showpageshadow="2"
     inkscape:pageopacity="0.0"
     inkscape:pagecheckerboard="0"
     inkscape:deskcolor="#d1d1d1"
     inkscape:document-units="mm"
     inkscape:zoom="0.5709831"
     inkscape:cx="190.89882"
     inkscape:cy="427.33314"
     inkscape:window-width="1307"
     inkscape:window-height="811"
     inkscape:window-x="0"
     inkscape:window-y="33"
     inkscape:window-maximized="0"
     inkscape:current-layer="layer1" /><defs
     id="defs1" /><g
     inkscape:label="Calque 1"
     inkscape:groupmode="layer"
     id="layer1"
     transform="translate(-56.469899,-132.36926)"><path
       style="fill:#dfc205;fill-opacity:1;stroke-width:0.963272"
       d="m 78.525195,252.52781 c -0.679834,-0.28649 -1.28722,-0.88936 -1.532291,-1.52092 -0.159301,-0.41052 -0.18688,-97.37646 -0.02781,-97.76035 0.453589,-1.09458 1.658901,-1.87145 2.914666,-1.87859 0.34736,-0.002 0.98236,0.16333 1.411111,0.36738 0.428751,0.20403 2.938717,1.97796 5.577702,3.94205 4.064284,3.02489 4.860148,3.68786 5.203473,4.33453 l 0.405317,0.76345 0.08819,18.03647 c 0.06899,14.1086 0.136143,18.08097 0.30837,18.24072 0.450149,0.41759 1.33765,0.1892 2.954825,-0.76039 4.211472,-2.47295 9.889432,-4.58442 15.828812,-5.88627 7.83141,-1.71657 17.73016,-2.0852 26.06355,-0.97063 8.00264,1.07032 15.49682,3.43282 21.25486,6.70043 2.04377,1.15983 2.66354,1.31428 3.26092,0.81264 0.35165,-0.29529 0.35509,-0.47 0.35893,-18.23556 0.004,-20.50767 -0.15497,-18.61233 1.68906,-20.08377 1.29486,-1.03322 8.64311,-6.45247 9.24318,-6.81675 1.49046,-0.90476 3.67294,-0.28485 4.428,1.25777 0.31571,0.64499 0.32675,2.30139 0.32675,49.03199 0,46.57259 -0.012,48.38895 -0.32381,49.02589 -0.64894,1.32564 -2.21015,1.98993 -3.69885,1.57385 -0.59811,-0.16716 -10.05625,-7.00594 -10.84713,-7.84308 -0.81185,-0.85935 -0.80514,-0.72276 -0.81333,-16.55873 l -0.008,-14.96503 -0.38611,-0.74008 c -0.62968,-1.20697 -3.96393,-4.17478 -6.31666,-5.62248 -12.68827,-7.80743 -30.28157,-9.75709 -45.48653,-5.04077 -7.40489,2.29688 -13.830539,6.05 -16.976197,9.91554 l -0.772696,0.94953 -0.08819,15.31599 -0.08819,15.316 -0.408187,0.76897 c -0.347127,0.65393 -1.125487,1.30247 -5.203472,4.33567 -2.637407,1.9617 -5.146082,3.73316 -5.574833,3.93655 -0.942514,0.44717 -1.799518,0.46511 -2.765681,0.058 z m 46.102265,-9.84367 c -6.55577,-0.63104 -12.76659,-3.09144 -17.90436,-7.09274 -2.77743,-2.16307 -5.54611,-5.29143 -7.865207,-8.88696 -0.06866,-0.10646 0.967944,0.8221 2.303567,2.06342 3.33866,3.10298 6.00147,4.89855 10.0611,6.78433 5.24979,2.43865 10.37009,3.55319 16.36,3.56109 7.00978,0.009 12.87362,-1.5011 19.04619,-4.90572 3.11742,-1.71948 5.64022,-3.64214 8.59896,-6.55337 0.65484,-0.64432 1.19062,-1.1351 1.19062,-1.09058 0,0.20071 -2.34537,3.40889 -3.35543,4.58979 -3.81383,4.45899 -8.8203,7.87007 -14.39025,9.80461 -1.609,0.55883 -4.90643,1.33146 -6.59924,1.54629 -2.01418,0.25561 -5.72712,0.34528 -7.44595,0.17984 z M 98.912474,177.2242 c 0.125009,-0.22505 0.815032,-1.23227 1.533386,-2.23826 9.03046,-12.64639 26.18532,-17.2894 40.62203,-10.99444 5.85319,2.55222 10.97744,6.825 14.46547,12.06183 0.50042,0.75131 0.88347,1.39047 0.85123,1.42039 -0.0322,0.0298 -0.49424,-0.4256 -1.02667,-1.01228 -2.55611,-2.81651 -7.33019,-6.17108 -11.55139,-8.11675 -3.18393,-1.46758 -7.38982,-2.64987 -11.16448,-3.13836 -2.54041,-0.32879 -7.61382,-0.33374 -10.06975,-0.01 -8.69635,1.14692 -15.97037,4.6853 -22.22852,10.81289 -0.912229,0.89318 -1.556315,1.43986 -1.431306,1.21482 z"
       id="path1"
       inkscape:export-filename="logo.png"
       inkscape:export-xdpi="256.444"
       inkscape:export-ydpi="256.444" /></g></svg>
